<mxfile host="app.diagrams.net" modified="2024-06-04T01:41:14.673Z" agent="Mozilla/5.0 (Windows NT 10.0; Win64; x64) AppleWebKit/537.36 (KHTML, like Gecko) Chrome/123.0.0.0 Safari/537.36 OPR/109.0.0.0" etag="nBhcmKyPyDYeKBCFe-Rf" version="24.4.9" type="google">
  <diagram name="Página-1" id="VOA933aGq113Zo3G60Bx">
    <mxGraphModel grid="0" page="1" gridSize="10" guides="1" tooltips="1" connect="1" arrows="1" fold="1" pageScale="1" pageWidth="5000" pageHeight="5000" math="0" shadow="0">
      <root>
        <mxCell id="0" />
        <mxCell id="1" parent="0" />
        <mxCell id="jmj-c5-6I22ViDQcdyZ1-2" value="Educando" style="swimlane;whiteSpace=wrap;html=1;fillStyle=auto;horizontal=1;verticalAlign=middle;spacing=40;spacingTop=0;startSize=51;fontSize=40;" vertex="1" parent="1">
          <mxGeometry x="344" y="194" width="1824" height="2302" as="geometry">
            <mxRectangle x="564" y="127" width="130" height="26" as="alternateBounds" />
          </mxGeometry>
        </mxCell>
        <mxCell id="jmj-c5-6I22ViDQcdyZ1-1" value="&lt;font style=&quot;font-size: 30px;&quot; face=&quot;Arial&quot;&gt;Realizar lições&lt;/font&gt;" style="ellipse;whiteSpace=wrap;html=1;fontSize=22;" vertex="1" parent="jmj-c5-6I22ViDQcdyZ1-2">
          <mxGeometry x="771" y="104" width="300" height="200" as="geometry" />
        </mxCell>
        <mxCell id="jmj-c5-6I22ViDQcdyZ1-10" value="&lt;font style=&quot;font-size: 30px;&quot; face=&quot;Arial&quot;&gt;Acompanhar progresso&lt;/font&gt;" style="ellipse;whiteSpace=wrap;html=1;fontSize=22;" vertex="1" parent="jmj-c5-6I22ViDQcdyZ1-2">
          <mxGeometry x="771" y="345" width="300" height="200" as="geometry" />
        </mxCell>
        <mxCell id="jmj-c5-6I22ViDQcdyZ1-11" value="&lt;font style=&quot;font-size: 30px;&quot; face=&quot;Arial&quot;&gt;Configurar perfil&lt;/font&gt;" style="ellipse;whiteSpace=wrap;html=1;fontSize=22;" vertex="1" parent="jmj-c5-6I22ViDQcdyZ1-2">
          <mxGeometry x="771" y="582" width="300" height="200" as="geometry" />
        </mxCell>
        <mxCell id="HDQb5d6VeTI2CkZ8Fgm4-2" value="&lt;font style=&quot;font-size: 30px;&quot; face=&quot;Arial&quot;&gt;Comunicar-se com outros usuários&lt;/font&gt;" style="ellipse;whiteSpace=wrap;html=1;fontSize=22;" vertex="1" parent="jmj-c5-6I22ViDQcdyZ1-2">
          <mxGeometry x="771" y="848" width="300" height="200" as="geometry" />
        </mxCell>
        <mxCell id="HDQb5d6VeTI2CkZ8Fgm4-1" value="&lt;font style=&quot;font-size: 30px;&quot; face=&quot;Arial&quot;&gt;Gerenciar assinatura&lt;/font&gt;" style="ellipse;whiteSpace=wrap;html=1;fontSize=22;" vertex="1" parent="jmj-c5-6I22ViDQcdyZ1-2">
          <mxGeometry x="771" y="1114" width="300" height="200" as="geometry" />
        </mxCell>
        <mxCell id="HDQb5d6VeTI2CkZ8Fgm4-8" value="&lt;font style=&quot;font-size: 30px;&quot; face=&quot;Arial&quot;&gt;Gerenciar usuários&lt;/font&gt;" style="ellipse;whiteSpace=wrap;html=1;fontSize=22;" vertex="1" parent="jmj-c5-6I22ViDQcdyZ1-2">
          <mxGeometry x="771" y="1436" width="300" height="200" as="geometry" />
        </mxCell>
        <mxCell id="HDQb5d6VeTI2CkZ8Fgm4-9" value="&lt;font style=&quot;font-size: 30px;&quot; face=&quot;Arial&quot;&gt;Gerenciar conteúdo&lt;/font&gt;" style="ellipse;whiteSpace=wrap;html=1;fontSize=22;" vertex="1" parent="jmj-c5-6I22ViDQcdyZ1-2">
          <mxGeometry x="771" y="1668" width="300" height="200" as="geometry" />
        </mxCell>
        <mxCell id="HDQb5d6VeTI2CkZ8Fgm4-10" value="&lt;font style=&quot;font-size: 30px;&quot; face=&quot;Arial&quot;&gt;Gerenciar problemas técnicos&lt;/font&gt;" style="ellipse;whiteSpace=wrap;html=1;fontSize=22;" vertex="1" parent="jmj-c5-6I22ViDQcdyZ1-2">
          <mxGeometry x="771" y="1908" width="300" height="200" as="geometry" />
        </mxCell>
        <mxCell id="jmj-c5-6I22ViDQcdyZ1-8" value="Administrador" style="shape=umlActor;verticalLabelPosition=bottom;verticalAlign=top;html=1;fontSize=22;" vertex="1" parent="1">
          <mxGeometry x="142" y="1851" width="83" height="160" as="geometry" />
        </mxCell>
        <mxCell id="HDQb5d6VeTI2CkZ8Fgm4-3" value="" style="endArrow=none;html=1;rounded=0;entryX=0;entryY=0.5;entryDx=0;entryDy=0;exitX=0.5;exitY=0.5;exitDx=0;exitDy=0;exitPerimeter=0;" edge="1" parent="1" source="NZt42NSHR84eHO8GKYl1-13" target="jmj-c5-6I22ViDQcdyZ1-1">
          <mxGeometry width="50" height="50" relative="1" as="geometry">
            <mxPoint x="135" y="795" as="sourcePoint" />
            <mxPoint x="185" y="745" as="targetPoint" />
          </mxGeometry>
        </mxCell>
        <mxCell id="HDQb5d6VeTI2CkZ8Fgm4-4" value="" style="endArrow=none;html=1;rounded=0;entryX=0;entryY=0.5;entryDx=0;entryDy=0;exitX=0.5;exitY=0.5;exitDx=0;exitDy=0;exitPerimeter=0;" edge="1" parent="1" source="NZt42NSHR84eHO8GKYl1-13" target="jmj-c5-6I22ViDQcdyZ1-10">
          <mxGeometry width="50" height="50" relative="1" as="geometry">
            <mxPoint x="432" y="722" as="sourcePoint" />
            <mxPoint x="482" y="672" as="targetPoint" />
          </mxGeometry>
        </mxCell>
        <mxCell id="HDQb5d6VeTI2CkZ8Fgm4-5" value="" style="endArrow=none;html=1;rounded=0;exitX=0.5;exitY=0.5;exitDx=0;exitDy=0;exitPerimeter=0;entryX=0;entryY=0.5;entryDx=0;entryDy=0;" edge="1" parent="1" source="NZt42NSHR84eHO8GKYl1-13" target="jmj-c5-6I22ViDQcdyZ1-11">
          <mxGeometry width="50" height="50" relative="1" as="geometry">
            <mxPoint x="440" y="739" as="sourcePoint" />
            <mxPoint x="490" y="689" as="targetPoint" />
          </mxGeometry>
        </mxCell>
        <mxCell id="HDQb5d6VeTI2CkZ8Fgm4-6" value="" style="endArrow=none;html=1;rounded=0;entryX=0;entryY=0.5;entryDx=0;entryDy=0;exitX=0.5;exitY=0.5;exitDx=0;exitDy=0;exitPerimeter=0;" edge="1" parent="1" source="NZt42NSHR84eHO8GKYl1-13" target="HDQb5d6VeTI2CkZ8Fgm4-2">
          <mxGeometry width="50" height="50" relative="1" as="geometry">
            <mxPoint x="220" y="854" as="sourcePoint" />
            <mxPoint x="270" y="804" as="targetPoint" />
          </mxGeometry>
        </mxCell>
        <mxCell id="HDQb5d6VeTI2CkZ8Fgm4-7" value="" style="endArrow=none;html=1;rounded=0;entryX=0;entryY=0.5;entryDx=0;entryDy=0;exitX=0.5;exitY=0.5;exitDx=0;exitDy=0;exitPerimeter=0;" edge="1" parent="1" source="NZt42NSHR84eHO8GKYl1-13" target="HDQb5d6VeTI2CkZ8Fgm4-1">
          <mxGeometry width="50" height="50" relative="1" as="geometry">
            <mxPoint x="158" y="874" as="sourcePoint" />
            <mxPoint x="208" y="824" as="targetPoint" />
          </mxGeometry>
        </mxCell>
        <mxCell id="HDQb5d6VeTI2CkZ8Fgm4-11" value="" style="endArrow=none;html=1;rounded=0;entryX=0;entryY=0.5;entryDx=0;entryDy=0;exitX=0.5;exitY=0.5;exitDx=0;exitDy=0;exitPerimeter=0;" edge="1" parent="1" source="jmj-c5-6I22ViDQcdyZ1-8" target="HDQb5d6VeTI2CkZ8Fgm4-9">
          <mxGeometry width="50" height="50" relative="1" as="geometry">
            <mxPoint x="480" y="1925" as="sourcePoint" />
            <mxPoint x="530" y="1875" as="targetPoint" />
          </mxGeometry>
        </mxCell>
        <mxCell id="HDQb5d6VeTI2CkZ8Fgm4-12" value="" style="endArrow=none;html=1;rounded=0;entryX=0;entryY=0.5;entryDx=0;entryDy=0;exitX=0.5;exitY=0.5;exitDx=0;exitDy=0;exitPerimeter=0;" edge="1" parent="1" source="jmj-c5-6I22ViDQcdyZ1-8" target="HDQb5d6VeTI2CkZ8Fgm4-8">
          <mxGeometry width="50" height="50" relative="1" as="geometry">
            <mxPoint x="520" y="2137" as="sourcePoint" />
            <mxPoint x="570" y="2087" as="targetPoint" />
          </mxGeometry>
        </mxCell>
        <mxCell id="HDQb5d6VeTI2CkZ8Fgm4-13" value="" style="endArrow=none;html=1;rounded=0;entryX=0;entryY=0.5;entryDx=0;entryDy=0;exitX=0.5;exitY=0.5;exitDx=0;exitDy=0;exitPerimeter=0;" edge="1" parent="1" source="jmj-c5-6I22ViDQcdyZ1-8" target="HDQb5d6VeTI2CkZ8Fgm4-10">
          <mxGeometry width="50" height="50" relative="1" as="geometry">
            <mxPoint x="657" y="2330" as="sourcePoint" />
            <mxPoint x="707" y="2280" as="targetPoint" />
          </mxGeometry>
        </mxCell>
        <mxCell id="NZt42NSHR84eHO8GKYl1-13" value="Usuário" style="shape=umlActor;verticalLabelPosition=bottom;verticalAlign=top;html=1;fontSize=22;" vertex="1" parent="1">
          <mxGeometry x="142" y="603" width="83" height="160" as="geometry" />
        </mxCell>
      </root>
    </mxGraphModel>
  </diagram>
</mxfile>
